<?xml version="1.0" standalone="no"?>
<!DOCTYPE svg PUBLIC "-//W3C//DTD SVG 20010904//EN"
 "http://www.w3.org/TR/2001/REC-SVG-20010904/DTD/svg10.dtd">
<svg version="1.0" xmlns="http://www.w3.org/2000/svg"
 width="400.000000pt" height="400.000000pt" viewBox="0 0 400.000000 400.000000"
 preserveAspectRatio="xMidYMid meet">

<g transform="translate(0.000000,400.000000) scale(0.100000,-0.100000)"
fill="#000000" stroke="none">
<path d="M2356 3601 c-3 -4 47 -59 112 -122 65 -63 249 -242 411 -399 161
-157 342 -332 402 -389 60 -57 109 -107 109 -112 0 -5 -166 -9 -377 -9 l-378
1 -141 137 c-258 252 -738 718 -829 805 -63 60 -97 87 -114 87 -18 0 -56 -30
-135 -107 -61 -59 -197 -191 -301 -293 -105 -102 -311 -302 -458 -444 -147
-142 -267 -263 -267 -267 0 -5 25 -9 56 -9 l57 0 126 122 c69 67 207 201 306
297 343 333 481 466 547 530 l67 64 38 -33 c21 -18 115 -107 208 -199 94 -91
254 -247 355 -345 102 -99 244 -238 316 -308 l131 -128 506 0 c279 0 507 4
507 8 0 5 -125 130 -277 278 -152 148 -358 348 -458 444 -99 97 -232 226 -296
288 l-117 112 -50 0 c-28 0 -53 -4 -56 -9z"/>
<path d="M1452 2882 c-10 -7 -13 -37 -11 -115 l2 -107 114 0 114 0 -3 113 -3
112 -100 3 c-55 1 -106 -2 -113 -6z"/>
<path d="M600 1965 l0 -205 35 0 35 0 0 75 0 75 138 0 c141 0 200 9 227 36 21
22 21 166 0 188 -28 28 -88 36 -262 36 l-173 0 0 -205z m368 133 c7 -7 12 -33
12 -60 0 -37 -4 -50 -19 -58 -11 -5 -81 -10 -155 -10 l-136 0 0 70 0 70 143 0
c98 0 147 -4 155 -12z"/>
<path d="M1164 2003 c-61 -93 -120 -185 -133 -205 l-23 -38 40 0 c38 0 41 3
82 68 24 37 72 111 107 166 l64 99 106 -167 106 -166 38 0 c22 0 39 2 39 5 0
3 -59 95 -131 205 -118 179 -134 200 -158 200 -25 0 -40 -18 -137 -167z"/>
<path d="M1640 1965 l0 -205 35 0 35 0 0 156 0 156 24 -19 c13 -10 103 -80
200 -155 137 -108 182 -138 206 -138 l30 0 0 205 0 205 -35 0 -34 0 -3 -156
-3 -156 -87 68 c-280 222 -310 244 -339 244 l-29 0 0 -205z"/>
<path d="M2250 1965 l0 -205 40 0 40 0 0 90 0 90 63 0 64 0 69 -81 c38 -44 71
-85 72 -90 4 -10 92 -13 92 -3 0 3 -38 52 -85 108 l-84 103 82 88 c45 48 84
92 85 96 2 5 -16 9 -40 8 -41 0 -46 -4 -118 -85 l-74 -84 -63 0 -63 0 0 85 0
85 -40 0 -40 0 0 -205z"/>
<path d="M2970 2118 c-19 -29 -78 -120 -132 -201 -54 -81 -98 -150 -98 -153 0
-2 17 -4 39 -4 36 0 40 3 82 68 24 37 72 111 107 166 l64 98 22 -33 c12 -19
60 -94 106 -166 l83 -133 38 0 c22 0 39 2 39 4 0 3 -58 94 -129 203 -115 177
-131 198 -158 201 -25 3 -33 -3 -63 -50z"/>
<path d="M830 1655 c-25 -7 -64 -19 -87 -25 -38 -10 -43 -14 -43 -40 0 -36 5
-36 115 -7 78 21 80 23 83 55 4 36 0 37 -68 17z"/>
<path d="M1898 1643 c-85 -25 -88 -27 -88 -56 0 -28 2 -29 33 -24 18 3 65 15
105 27 68 21 72 24 72 51 0 36 -6 36 -122 2z"/>
<path d="M2970 1659 c-146 -40 -140 -37 -140 -71 0 -29 2 -30 32 -24 17 3 62
15 100 27 64 19 68 22 68 49 0 32 -5 34 -60 19z"/>
<path d="M3200 1658 c-19 -6 -59 -17 -87 -25 -49 -13 -53 -17 -53 -44 0 -17 5
-29 13 -29 10 0 117 27 180 46 11 4 17 15 17 35 0 32 -10 34 -70 17z"/>
<path d="M600 1325 l0 -205 215 0 215 0 0 30 0 30 -180 0 -180 0 0 60 0 60
171 0 170 0 -3 33 -3 32 -165 2 -165 2 0 48 0 48 178 3 177 2 0 30 0 30 -215
0 -215 0 0 -205z"/>
<path d="M1237 1523 c-4 -3 -7 -96 -7 -205 l0 -198 40 0 40 0 0 75 0 75 155 0
c225 0 251 16 243 146 -4 72 -18 89 -80 103 -48 12 -381 15 -391 4z m374 -63
c15 -9 19 -22 19 -64 0 -66 2 -66 -182 -66 l-138 0 0 70 0 70 141 0 c77 0 149
-5 160 -10z"/>
<path d="M1877 1523 c-4 -3 -7 -96 -7 -205 l0 -198 40 0 40 0 0 205 0 205 -33
0 c-19 0 -37 -3 -40 -7z"/>
<path d="M2110 1500 l0 -30 110 0 110 0 0 -175 0 -175 40 0 40 0 0 175 0 175
105 0 105 0 0 30 0 30 -255 0 -255 0 0 -30z"/>
<path d="M2823 1519 c-62 -18 -73 -46 -73 -190 0 -70 4 -139 10 -154 18 -46
59 -55 268 -55 196 0 245 8 262 40 6 10 10 84 10 163 0 165 -6 181 -75 197
-51 12 -360 11 -402 -1z m389 -66 c15 -14 18 -32 18 -134 0 -107 -2 -119 -19
-129 -23 -12 -350 -14 -369 -2 -9 7 -12 41 -10 137 4 155 -14 143 207 144 131
1 157 -2 173 -16z"/>
<path d="M1625 917 c-3 -7 -5 -47 -3 -88 2 -58 6 -74 18 -74 10 0 16 12 18 38
3 31 7 37 27 37 15 0 36 -14 58 -41 50 -58 79 -49 32 10 l-35 43 36 42 c48 56
19 63 -34 7 -46 -49 -79 -48 -84 2 -3 33 -24 48 -33 24z"/>
<path d="M1870 840 c0 -73 3 -90 15 -90 10 0 15 11 15 35 l0 34 67 3 c42 2 68
8 71 16 3 9 -15 12 -67 12 -69 0 -71 1 -71 25 0 24 2 25 76 25 56 0 75 3 72
13 -3 8 -33 13 -91 15 l-87 3 0 -91z"/>
<path d="M2090 915 c0 -11 11 -15 45 -15 l45 0 0 -75 c0 -60 3 -75 15 -75 12
0 15 15 15 75 l0 75 46 0 c32 0 44 4 42 13 -3 8 -36 13 -106 15 -86 2 -102 0
-102 -13z"/>
<path d="M610 835 c0 -13 57 -15 472 -13 366 2 472 6 476 16 3 9 -96 12 -472
12 -418 0 -476 -2 -476 -15z"/>
<path d="M2320 835 c0 -13 59 -15 475 -15 416 0 475 2 475 15 0 13 -59 15
-475 15 -416 0 -475 -2 -475 -15z"/>
<path d="M2715 570 c-3 -5 -1 -10 4 -10 6 0 11 5 11 10 0 6 -2 10 -4 10 -3 0
-8 -4 -11 -10z"/>
<path d="M3195 570 c-3 -5 -1 -10 4 -10 6 0 11 5 11 10 0 6 -2 10 -4 10 -3 0
-8 -4 -11 -10z"/>
<path d="M3225 570 c-3 -5 -2 -10 4 -10 5 0 13 5 16 10 3 6 2 10 -4 10 -5 0
-13 -4 -16 -10z"/>
<path d="M421 486 c-18 -37 -30 -71 -27 -74 3 -2 8 3 12 12 9 23 80 22 93 -1
5 -10 12 -16 14 -13 3 3 -10 37 -28 75 l-33 70 -31 -69z m37 -24 c-28 -5 -33
4 -18 35 l13 28 12 -30 c12 -27 12 -30 -7 -33z"/>
<path d="M1553 540 c-69 -28 -48 -133 27 -133 59 0 91 67 53 111 -22 25 -51
33 -80 22z m61 -26 c19 -18 21 -65 4 -82 -7 -7 -24 -12 -38 -12 -33 0 -50 17
-50 51 0 32 23 59 50 59 10 0 26 -7 34 -16z"/>
<path d="M1998 539 c-21 -12 -24 -42 -5 -57 6 -6 24 -13 40 -17 18 -5 27 -14
27 -27 0 -18 -5 -20 -40 -15 -22 3 -40 1 -40 -4 0 -16 87 -11 94 6 9 25 -4 43
-40 55 -46 16 -43 46 4 44 18 -1 32 2 32 7 0 5 -6 9 -14 9 -8 0 -20 2 -28 5
-7 2 -21 0 -30 -6z"/>
<path d="M3190 542 c-46 -14 -66 -76 -37 -116 20 -28 85 -26 108 3 22 27 24
47 6 80 -12 25 -50 41 -77 33z m52 -29 c21 -19 23 -52 5 -77 -19 -26 -68 -18
-86 15 -13 24 -13 29 2 53 20 30 52 34 79 9z"/>
<path d="M613 533 c42 -5 44 -9 16 -43 -11 -14 -29 -37 -40 -52 l-20 -28 58 2
c50 1 52 2 16 5 -24 2 -43 6 -43 9 0 3 18 27 40 53 22 26 40 50 40 54 0 4 -24
6 -52 5 -44 -1 -46 -2 -15 -5z"/>
<path d="M846 525 c-24 -25 -28 -52 -11 -85 15 -29 31 -35 80 -30 44 4 62 81
27 113 -23 21 -76 22 -96 2z m93 -26 c13 -24 13 -29 -2 -53 -30 -46 -97 -26
-97 29 0 28 36 57 65 53 10 -2 26 -15 34 -29z"/>
<path d="M1038 533 c20 -4 22 -10 22 -64 0 -33 4 -59 10 -59 6 0 10 26 10 59
0 54 2 60 23 64 12 2 -3 4 -33 4 -30 0 -45 -2 -32 -4z"/>
<path d="M1193 533 c26 -4 27 -6 29 -71 1 -50 2 -55 5 -22 5 72 11 88 36 93
12 2 -5 4 -38 4 -33 0 -48 -2 -32 -4z"/>
<path d="M1343 470 c0 -49 2 -63 6 -40 5 32 9 35 44 38 35 3 37 2 37 -27 0
-17 5 -31 10 -31 6 0 10 28 10 65 0 37 -4 65 -10 65 -5 0 -10 -13 -10 -30 0
-28 -2 -30 -39 -30 -37 0 -40 2 -44 33 -2 17 -4 -2 -4 -43z"/>
<path d="M1710 475 c0 -76 18 -88 22 -14 l3 50 38 -50 c20 -28 42 -51 47 -51
6 0 10 29 10 65 0 37 -4 65 -10 65 -5 0 -10 -23 -10 -51 l0 -52 -41 52 c-22
28 -45 51 -50 51 -5 0 -9 -29 -9 -65z"/>
<path d="M2168 533 c48 -5 49 -8 21 -43 -11 -14 -29 -37 -40 -52 l-20 -28 58
2 c57 1 57 1 14 7 l-43 6 41 51 c23 29 41 55 41 58 0 3 -26 5 -57 4 -50 -1
-52 -2 -15 -5z"/>
<path d="M2325 485 c-27 -62 -32 -90 -11 -62 17 22 81 23 90 2 3 -8 10 -15 15
-15 12 0 -43 123 -58 128 -6 2 -22 -22 -36 -53z m53 0 c11 -24 10 -25 -18 -25
-28 0 -29 1 -18 25 6 14 14 25 18 25 4 0 12 -11 18 -25z"/>
<path d="M2492 475 c0 -46 2 -63 8 -50 9 23 40 52 40 39 1 -14 40 -57 46 -51
4 3 -3 18 -15 33 -26 33 -26 39 0 65 11 11 18 23 15 27 -4 3 -23 -11 -44 -33
l-37 -38 -6 39 c-5 30 -6 24 -7 -31z"/>
<path d="M2660 475 l0 -65 53 2 52 2 -47 3 c-43 4 -48 7 -48 28 0 21 5 24 43
28 l42 4 -42 1 c-38 2 -43 5 -43 26 0 22 5 25 48 29 l47 3 -52 2 -53 2 0 -65z"/>
<path d="M2821 473 c1 -38 4 -56 6 -40 6 35 35 36 62 0 12 -14 24 -23 28 -20
3 4 -2 15 -11 26 -15 16 -15 20 -3 28 20 11 26 35 15 56 -6 12 -21 17 -53 17
l-45 0 1 -67z m79 47 c23 -15 -1 -44 -39 -48 -29 -3 -31 -1 -31 27 0 27 3 31
28 31 15 0 34 -5 42 -10z"/>
<path d="M2998 533 c20 -4 22 -10 22 -64 0 -33 4 -59 10 -59 6 0 10 26 10 59
0 54 2 60 23 64 12 2 -3 4 -33 4 -30 0 -45 -2 -32 -4z"/>
<path d="M3394 490 c3 -62 -4 -75 -38 -66 -16 4 -26 2 -26 -4 0 -7 15 -10 38
-8 l37 3 3 63 c2 34 -1 62 -6 62 -5 0 -9 -22 -8 -50z"/>
<path d="M3478 475 l4 -65 51 2 52 2 -47 3 c-43 4 -48 7 -48 28 0 21 5 24 43
28 l42 4 -42 1 c-38 2 -43 5 -43 26 0 22 5 25 48 29 l47 3 -55 2 -55 2 3 -65z"/>
</g>
</svg>
