<svg width="33" height="32" viewBox="0 0 33 32" fill="none" xmlns="http://www.w3.org/2000/svg">
<g id="Phone">
<path id="Vector" d="M20.9081 18.1675C21.0465 18.0753 21.2058 18.0192 21.3715 18.0041C21.5372 17.9891 21.704 18.0156 21.8568 18.0813L27.7518 20.7225C27.9505 20.8074 28.1163 20.9544 28.2244 21.1414C28.3326 21.3284 28.3773 21.5455 28.3518 21.76C28.1576 23.2113 27.4429 24.5427 26.3406 25.5065C25.2384 26.4704 23.8235 27.0011 22.3593 27C17.8506 27 13.5266 25.2089 10.3385 22.0208C7.15037 18.8327 5.3593 14.5087 5.3593 10C5.35818 8.53576 5.8889 7.12094 6.85275 6.01867C7.81661 4.9164 9.14799 4.2017 10.5993 4.0075C10.8138 3.98202 11.0309 4.0267 11.2179 4.13486C11.4049 4.24302 11.5519 4.40884 11.6368 4.6075L14.2781 10.5075C14.3429 10.659 14.3694 10.8243 14.355 10.9885C14.3406 11.1527 14.2858 11.3108 14.1956 11.4488L11.5243 14.625C11.4295 14.768 11.3735 14.9331 11.3617 15.1042C11.3499 15.2753 11.3826 15.4466 11.4568 15.6013C12.4906 17.7175 14.6781 19.8788 16.8006 20.9025C16.956 20.9764 17.1281 21.0084 17.2997 20.9955C17.4713 20.9825 17.6366 20.9251 17.7793 20.8288L20.9081 18.1675Z" stroke="#5A0001" stroke-width="1.5" stroke-linecap="round" stroke-linejoin="round"/>
</g>
</svg>
