<svg width="100" height="100" viewBox="0 0 100 100" fill="none" xmlns="http://www.w3.org/2000/svg">
<path d="M96.875 4.68746H50.6938C50.1522 3.73814 49.3691 2.94897 48.424 2.40006C47.4789 1.85114 46.4054 1.56201 45.3125 1.56201C44.2196 1.56201 43.1461 1.85114 42.201 2.40006C41.2559 2.94897 40.4728 3.73814 39.9312 4.68746H19.4438C18.9022 3.73814 18.1191 2.94897 17.174 2.40006C16.2289 1.85114 15.1554 1.56201 14.0625 1.56201C12.9696 1.56201 11.8961 1.85114 10.951 2.40006C10.0059 2.94897 9.22282 3.73814 8.68125 4.68746H3.125C2.7106 4.68746 2.31317 4.85208 2.02015 5.14511C1.72712 5.43813 1.5625 5.83556 1.5625 6.24996V12.5C1.5625 12.9144 1.72712 13.3118 2.02015 13.6048C2.31317 13.8978 2.7106 14.0625 3.125 14.0625H9.375V17.1875H7.8125C7.3981 17.1875 7.00067 17.3521 6.70765 17.6451C6.41462 17.9381 6.25 18.3356 6.25 18.75V96.875C6.25 97.2894 6.41462 97.6868 6.70765 97.9798C7.00067 98.2728 7.3981 98.4375 7.8125 98.4375H51.5625C51.9769 98.4375 52.3743 98.2728 52.6674 97.9798C52.9604 97.6868 53.125 97.2894 53.125 96.875V18.75C53.125 18.3356 52.9604 17.9381 52.6674 17.6451C52.3743 17.3521 51.9769 17.1875 51.5625 17.1875H50V14.0625H87.5V96.875C87.5 97.2894 87.6646 97.6868 87.9576 97.9798C88.2507 98.2728 88.6481 98.4375 89.0625 98.4375H95.3125C95.7269 98.4375 96.1243 98.2728 96.4174 97.9798C96.7104 97.6868 96.875 97.2894 96.875 96.875V14.0625C97.2894 14.0625 97.6868 13.8978 97.9799 13.6048C98.2729 13.3118 98.4375 12.9144 98.4375 12.5V6.24996C98.4375 5.83556 98.2729 5.43813 97.9799 5.14511C97.6868 4.85208 97.2894 4.68746 96.875 4.68746ZM95.3125 7.81246V10.9375H50.6906C51.253 9.99144 51.5539 8.91298 51.5625 7.81246H95.3125ZM12.5 13.839C13.0093 13.9794 13.5343 14.0544 14.0625 14.0625C14.5907 14.0544 15.1157 13.9794 15.625 13.839V20.3125C15.625 20.7269 15.4604 21.1243 15.1674 21.4173C14.8743 21.7103 14.4769 21.875 14.0625 21.875C13.6481 21.875 13.2507 21.7103 12.9576 21.4173C12.6646 21.1243 12.5 20.7269 12.5 20.3125V13.839ZM18.75 20.3125H40.625C40.6291 21.4693 41.0635 22.5833 41.8438 23.4375H17.5313C18.3115 22.5833 18.7459 21.4693 18.75 20.3125ZM40.625 17.1875H18.75V14.0625H40.625V17.1875ZM15.625 26.5625H43.75V53.125H15.625V26.5625ZM45.3125 21.875C44.8981 21.875 44.5007 21.7103 44.2076 21.4173C43.9146 21.1243 43.75 20.7269 43.75 20.3125V13.839C44.7704 14.1369 45.8546 14.1369 46.875 13.839V20.3125C46.875 20.7269 46.7104 21.1243 46.4174 21.4173C46.1243 21.7103 45.7269 21.875 45.3125 21.875ZM45.3125 4.68746C46.1413 4.68746 46.9362 5.0167 47.5222 5.60275C48.1083 6.18881 48.4375 6.98366 48.4375 7.81246C48.4406 8.25266 48.3485 8.68833 48.1675 9.08962C47.9866 9.49091 47.721 9.84836 47.3891 10.1375C46.8098 10.6422 46.0666 10.9189 45.2983 10.9157C44.53 10.9126 43.7891 10.6298 43.2141 10.1203C42.8879 9.83137 42.6275 9.47587 42.4504 9.07776C42.2733 8.67964 42.1836 8.24817 42.1875 7.81246C42.1875 6.98366 42.5167 6.18881 43.1028 5.60275C43.6888 5.0167 44.4837 4.68746 45.3125 4.68746ZM39.0625 7.81246C39.0705 8.91286 39.3709 9.99135 39.9328 10.9375H19.4406C20.003 9.99144 20.3039 8.91298 20.3125 7.81246H39.0625ZM14.0625 4.68746C14.8913 4.68746 15.6862 5.0167 16.2722 5.60275C16.8583 6.18881 17.1875 6.98366 17.1875 7.81246C17.1906 8.25266 17.0985 8.68833 16.9175 9.08962C16.7366 9.49091 16.471 9.84836 16.1391 10.1375C15.5598 10.6422 14.8166 10.9189 14.0483 10.9157C13.28 10.9126 12.5391 10.6298 11.9641 10.1203C11.6379 9.83137 11.3775 9.47587 11.2004 9.07776C11.0233 8.67964 10.9336 8.24817 10.9375 7.81246C10.9375 6.98366 11.2667 6.18881 11.8528 5.60275C12.4388 5.0167 13.2337 4.68746 14.0625 4.68746ZM4.6875 7.81246H7.8125C7.8205 8.91286 8.12086 9.99135 8.68281 10.9375H4.6875V7.81246ZM9.375 95.3125V20.3125C9.37941 21.2881 9.68813 22.238 10.2581 23.0298C10.8281 23.8216 11.6309 24.4158 12.5547 24.7297C12.5276 24.8177 12.5093 24.9083 12.5 25V54.6875C12.5 55.1019 12.6646 55.4993 12.9576 55.7923C13.2507 56.0853 13.6481 56.25 14.0625 56.25H45.3125C45.7269 56.25 46.1243 56.0853 46.4174 55.7923C46.7104 55.4993 46.875 55.1019 46.875 54.6875V25C46.8657 24.9083 46.8474 24.8177 46.8203 24.7297C47.7416 24.4167 48.5426 23.8249 49.1124 23.0362C49.6821 22.2475 49.9923 21.301 50 20.3281V95.3125H9.375ZM93.75 95.3125H90.625V14.0625H93.75V95.3125Z" fill="#5A0001"/>
<path d="M45.3125 59.375H14.0625C13.6481 59.375 13.2507 59.5396 12.9576 59.8326C12.6646 60.1257 12.5 60.5231 12.5 60.9375V90.625C12.5 91.0394 12.6646 91.4368 12.9576 91.7299C13.2507 92.0229 13.6481 92.1875 14.0625 92.1875H45.3125C45.7269 92.1875 46.1243 92.0229 46.4174 91.7299C46.7104 91.4368 46.875 91.0394 46.875 90.625V60.9375C46.875 60.5231 46.7104 60.1257 46.4174 59.8326C46.1243 59.5396 45.7269 59.375 45.3125 59.375ZM43.75 89.0625H15.625V62.5H43.75V89.0625Z" fill="#5A0001"/>
<path d="M56.25 53.125H76.5625V56.25H56.25V53.125Z" fill="#5A0001"/>
<path d="M59.375 46.875H71.875V50H59.375V46.875Z" fill="#5A0001"/>
<path d="M75 46.875H78.125V50H75V46.875Z" fill="#5A0001"/>
<path d="M64.0625 59.375H84.375V62.5H64.0625V59.375Z" fill="#5A0001"/>
</svg>
