<svg width="100" height="100" viewBox="0 0 100 100" fill="none" xmlns="http://www.w3.org/2000/svg">
<g clip-path="url(#clip0_4140_2201)">
<path d="M98.3334 96.6666H1.6666C0.744922 96.6666 0 97.4133 0 98.3332C0 99.2531 0.744922 100 1.6666 100H98.3332C99.2549 100 99.9998 99.2533 99.9998 98.3334C99.9998 97.4135 99.2551 96.6666 98.3334 96.6666Z" fill="#5A0001"/>
<path d="M50 0H6.6666C5.74492 0 5 0.74668 5 1.6666V98.3332C5 99.2531 5.74492 99.9998 6.6666 99.9998H50C50.9217 99.9998 51.6666 99.2531 51.6666 98.3332V1.6666C51.6666 0.74668 50.9217 0 50 0ZM48.3334 96.6666H8.3334V3.3334H48.3334V96.6666Z" fill="#5A0001"/>
<path d="M43.3333 6.66663H13.3333C12.4117 6.66663 11.6667 7.41331 11.6667 8.33323V98.3332C11.6667 99.2532 12.4117 99.9998 13.3333 99.9998H43.3333C44.255 99.9998 44.9999 99.2532 44.9999 98.3332V8.33323C44.9999 7.41331 44.255 6.66663 43.3333 6.66663ZM41.6666 96.6666H15V10H41.6666V96.6666Z" fill="#5A0001"/>
<path d="M93.3334 0H50C49.0783 0 48.3334 0.74668 48.3334 1.6666V98.3332C48.3334 99.2531 49.0783 99.9998 50 99.9998H93.3334C94.2551 99.9998 95 99.2531 95 98.3332V1.6666C95 0.74668 94.2551 0 93.3334 0ZM91.6666 96.6666H51.6666V3.3334H91.6666V96.6666Z" fill="#5A0001"/>
<path d="M86.6666 6.66663H56.6666C55.7449 6.66663 55 7.41331 55 8.33323V98.3332C55 99.2532 55.7449 99.9998 56.6666 99.9998H86.6666C87.5883 99.9998 88.3332 99.2532 88.3332 98.3332V8.33323C88.3334 7.41331 87.5883 6.66663 86.6666 6.66663ZM85 96.6666H58.3334V10H85V96.6666Z" fill="#5A0001"/>
<path d="M63.3333 41.6666C62.4117 41.6666 61.6667 42.4133 61.6667 43.3332V63.3332C61.6667 64.2531 62.4117 64.9998 63.3333 64.9998C64.255 64.9998 64.9999 64.2531 64.9999 63.3332V43.3332C64.9999 42.4133 64.255 41.6666 63.3333 41.6666Z" fill="#5A0001"/>
<path d="M36.6666 41.6666C35.7449 41.6666 35 42.4133 35 43.3332V63.3332C35 64.2531 35.7449 64.9998 36.6666 64.9998C37.5883 64.9998 38.3332 64.2531 38.3332 63.3332V43.3332C38.3334 42.4133 37.5883 41.6666 36.6666 41.6666Z" fill="#5A0001"/>
</g>
<defs>
<clipPath id="clip0_4140_2201">
<rect width="100" height="100" fill="white"/>
</clipPath>
</defs>
</svg>
