<svg width="100" height="100" viewBox="0 0 100 100" fill="none" xmlns="http://www.w3.org/2000/svg">
<g clip-path="url(#clip0_4140_2198)">
<path d="M47.6563 21.0919H52.3438C52.7582 21.0919 53.1556 20.9272 53.4487 20.6342C53.7417 20.3412 53.9063 19.9437 53.9063 19.5293C53.9063 19.1149 53.7417 18.7175 53.4487 18.4245C53.1556 18.1314 52.7582 17.9668 52.3438 17.9668H47.6563C47.2419 17.9668 46.8444 18.1314 46.5514 18.4245C46.2584 18.7175 46.0938 19.1149 46.0938 19.5293C46.0938 19.9437 46.2584 20.3412 46.5514 20.6342C46.8444 20.9272 47.2419 21.0919 47.6563 21.0919Z" fill="#5A0001"/>
<path d="M98.4375 96.8749H96.875C96.875 96.8749 96.8746 29.2428 96.875 29.1667C96.8762 28.8997 96.809 28.6369 96.6799 28.4033C96.5507 28.1696 96.3639 27.9729 96.1373 27.8319L52.3301 0.60655C51.6178 0.20881 50.8156 0 49.9998 0C49.1841 0 48.3819 0.20881 47.6696 0.60655C47.6502 0.617613 47.6304 0.629441 47.6113 0.641261L3.86284 27.8319C3.63604 27.9728 3.44915 28.1695 3.31999 28.4031C3.19082 28.6368 3.12371 28.8997 3.12504 29.1667C3.12542 29.2429 3.12504 96.8749 3.12504 96.8749H1.56254C1.14813 96.8749 0.75069 97.0396 0.457657 97.3326C0.164624 97.6256 0 98.0231 0 98.4375C0 98.8519 0.164624 99.2493 0.457657 99.5423C0.75069 99.8354 1.14813 100 1.56254 100H98.4375C98.852 100 99.2494 99.8354 99.5424 99.5423C99.8355 99.2493 100 98.8519 100 98.4375C100 98.0231 99.8355 97.6256 99.5424 97.3326C99.2494 97.0396 98.852 96.8749 98.4375 96.8749ZM34.4547 12.498H65.5454L89.4286 27.3421H10.5711L34.4547 12.498ZM29.6875 30.4672V36.7173H26.5625V30.4672H29.6875ZM35.9375 30.4672V36.7173H32.8125V30.4672H35.9375ZM42.1875 30.4672V36.7173H39.0625V30.4672H42.1875ZM48.4375 30.4672V36.7173H45.3125V30.4672H48.4375ZM54.6875 30.4672V36.7173H51.5625V30.4672H54.6875ZM60.9375 30.4672V36.7173H57.8125V30.4672H60.9375ZM67.1875 30.4672V36.7173H64.0625V30.4672H67.1875ZM73.4375 30.4672V36.7173H70.3125V30.4672H73.4375ZM90.1535 30.4672L79.8745 36.7173H76.5625V30.4672H90.1535ZM78.9063 39.8424V46.8291L72.3565 39.8424H78.9063ZM27.6437 39.8424L21.0938 46.8291V39.8423L27.6437 39.8424ZM23.4375 36.7173H20.1256L9.8462 30.4672H23.4375V36.7173ZM17.9688 78.1245H6.25004V31.9379L17.9688 39.0634V78.1245ZM21.0938 51.3982L31.9268 39.8424H68.0733L78.9063 51.3982V90.6248H21.0938V51.3982ZM82.0313 81.2496H93.75V90.6248H82.0313V81.2496ZM82.0313 78.1245V39.0634L93.75 31.9379V78.1245H82.0313ZM6.25004 81.2496H17.9688V90.6248H6.25004V81.2496ZM6.25004 93.7499H93.75V96.8749H6.25004V93.7499ZM49.2272 3.31657C49.4584 3.19 49.7171 3.12192 49.9806 3.11826C50.2442 3.1146 50.5047 3.17548 50.7393 3.29559L60.5174 9.37293H39.4828L49.2272 3.31657Z" fill="#5A0001"/>
</g>
<defs>
<clipPath id="clip0_4140_2198">
<rect width="100" height="100" fill="white"/>
</clipPath>
</defs>
</svg>
