<svg width="100" height="100" viewBox="0 0 100 100" fill="none" xmlns="http://www.w3.org/2000/svg">
<g clip-path="url(#clip0_4140_2245)">
<path d="M94.0301 70.2064C95.4188 69.2291 96.326 67.6139 96.326 65.7867C96.326 62.8039 93.908 60.3857 90.925 60.3857C88.4961 60.3857 86.4416 61.9893 85.7623 64.1953" stroke="#5A0001" stroke-width="3" stroke-miterlimit="10" stroke-linecap="round" stroke-linejoin="round"/>
<path d="M87.3125 66.9854C87.0334 66.196 86.6111 65.4171 85.9766 64.7825C84.6457 63.4517 82.6807 63.0554 81.3123 62.9522C80.4174 62.8849 79.6726 63.6294 79.7402 64.5243C79.8434 65.8929 80.2396 67.8577 81.5705 69.1886C81.8068 69.4249 82.0631 69.6317 82.3324 69.8126" stroke="#5A0001" stroke-width="3" stroke-miterlimit="10" stroke-linecap="round" stroke-linejoin="round"/>
<path d="M94.8313 73.1199C94.3834 69.8025 91.5406 67.2451 88.1004 67.2451C84.3492 67.2451 81.3082 70.2861 81.3082 74.0373C81.3082 74.6074 81.3785 75.1613 81.5108 75.6904" stroke="#5A0001" stroke-width="3" stroke-miterlimit="10" stroke-linecap="round" stroke-linejoin="round"/>
<path d="M88.8112 77.9933C89.1209 77.1175 89.5891 76.2534 90.2932 75.5495C91.7697 74.073 93.9496 73.6333 95.4678 73.5189C96.4606 73.4441 97.2867 74.2702 97.2119 75.263C97.0975 76.7812 96.6578 78.9611 95.1813 80.4376C94.734 80.8849 94.2221 81.237 93.6836 81.5138" stroke="#5A0001" stroke-width="3" stroke-miterlimit="10" stroke-linecap="round" stroke-linejoin="round"/>
<path d="M85.1271 78.917C84.8541 78.3955 84.5093 77.9002 84.0749 77.4658C82.5984 75.9892 80.4185 75.5496 78.9003 75.4351C77.9076 75.3603 77.0814 76.1865 77.1562 77.1793C77.2707 78.6974 77.7103 80.8773 79.1869 82.3539C79.9611 83.1281 80.9287 83.6172 81.8927 83.9238" stroke="#5A0001" stroke-width="3" stroke-miterlimit="10" stroke-linecap="round" stroke-linejoin="round"/>
<path d="M91.8092 89.125C93.2537 88.0439 94.1887 86.3191 94.1887 84.3759C94.1887 81.1019 91.5346 78.448 88.2606 78.448C84.9866 78.448 82.3326 81.1021 82.3326 84.3759C82.3326 86.2365 83.1897 87.8968 84.5307 88.9837" stroke="#5A0001" stroke-width="3" stroke-miterlimit="10" stroke-linecap="round" stroke-linejoin="round"/>
<path d="M93.0139 43.5764V59.7961" stroke="#5A0001" stroke-width="3" stroke-miterlimit="10" stroke-linecap="round" stroke-linejoin="round"/>
<path d="M83.0652 43.5764V62.3975" stroke="#5A0001" stroke-width="3" stroke-miterlimit="10" stroke-linecap="round" stroke-linejoin="round"/>
<path d="M5.96997 70.2064C4.5813 69.2291 3.67407 67.6139 3.67407 65.7867C3.67407 62.8039 6.09204 60.3857 9.07505 60.3857C11.504 60.3857 13.5584 61.9893 14.2377 64.1953" stroke="#5A0001" stroke-width="3" stroke-miterlimit="10" stroke-linecap="round" stroke-linejoin="round"/>
<path d="M12.6875 66.9854C12.9666 66.196 13.3889 65.4171 14.0234 64.7825C15.3543 63.4517 17.3193 63.0554 18.6877 62.9522C19.5826 62.8849 20.3271 63.6294 20.2598 64.5243C20.1566 65.8929 19.7604 67.8577 18.4295 69.1886C18.1932 69.4249 17.9369 69.6317 17.6676 69.8126" stroke="#5A0001" stroke-width="3" stroke-miterlimit="10" stroke-linecap="round" stroke-linejoin="round"/>
<path d="M5.1687 73.1199C5.61655 69.8025 8.45933 67.2451 11.8996 67.2451C15.6507 67.2451 18.6917 70.2861 18.6917 74.0373C18.6917 74.6074 18.6214 75.1613 18.4892 75.6904" stroke="#5A0001" stroke-width="3" stroke-miterlimit="10" stroke-linecap="round" stroke-linejoin="round"/>
<path d="M11.1888 77.9933C10.8791 77.1175 10.4109 76.2534 9.70679 75.5495C8.23022 74.073 6.05034 73.6333 4.53218 73.5189C3.5394 73.4441 2.71323 74.2702 2.78804 75.263C2.90249 76.7812 3.34214 78.9611 4.8187 80.4376C5.26597 80.8849 5.77788 81.237 6.31636 81.5138" stroke="#5A0001" stroke-width="3" stroke-miterlimit="10" stroke-linecap="round" stroke-linejoin="round"/>
<path d="M14.8728 78.917C15.1458 78.3955 15.4906 77.9002 15.925 77.4658C17.4015 75.9892 19.5814 75.5496 21.0996 75.4351C22.0923 75.3603 22.9185 76.1865 22.8437 77.1793C22.7292 78.6974 22.2896 80.8773 20.813 82.3539C20.0388 83.1281 19.0712 83.6172 18.1072 83.9238" stroke="#5A0001" stroke-width="3" stroke-miterlimit="10" stroke-linecap="round" stroke-linejoin="round"/>
<path d="M8.19077 89.125C6.74624 88.0439 5.81128 86.3191 5.81128 84.3759C5.81128 81.1019 8.46538 78.448 11.7392 78.448C15.013 78.448 17.6671 81.1021 17.6671 84.3759C17.6671 86.2365 16.8101 87.8968 15.4691 88.9837" stroke="#5A0001" stroke-width="3" stroke-miterlimit="10" stroke-linecap="round" stroke-linejoin="round"/>
<path d="M6.98608 43.5764V59.7961" stroke="#5A0001" stroke-width="3" stroke-miterlimit="10" stroke-linecap="round" stroke-linejoin="round"/>
<path d="M16.9348 43.5764V62.3975" stroke="#5A0001" stroke-width="3" stroke-miterlimit="10" stroke-linecap="round" stroke-linejoin="round"/>
<path d="M65.8029 98.3165H1.46484V93.3876C1.46484 91.1179 3.30488 89.2778 5.57461 89.2778H94.4254C96.6951 89.2778 98.5352 91.1179 98.5352 93.3876V98.3165H72.8342" stroke="#5A0001" stroke-width="3" stroke-miterlimit="10" stroke-linecap="round" stroke-linejoin="round"/>
<path d="M36.3601 43.5766H94.5109C95.9181 43.5766 96.5797 41.8375 95.5281 40.9023L63.2045 12.1562H36.7955L4.47184 40.9021C3.42028 41.8373 4.0818 43.5764 5.48903 43.5764H29.5242" stroke="#5A0001" stroke-width="3" stroke-miterlimit="10" stroke-linecap="round" stroke-linejoin="round"/>
<path d="M63.2666 12.1562H36.7334C36.7334 6.37217 41.4223 1.68311 47.2064 1.68311H52.7936C58.5777 1.6833 63.2666 6.37217 63.2666 12.1562Z" stroke="#5A0001" stroke-width="3" stroke-miterlimit="10" stroke-linecap="round" stroke-linejoin="round"/>
<path d="M70.7342 72.7348H29.2658C28.2346 72.7348 27.3984 71.8989 27.3984 70.8674V68.3823C27.3984 67.351 28.2344 66.5149 29.2658 66.5149H70.7342C71.7654 66.5149 72.6016 67.3508 72.6016 68.3823V70.8674C72.6014 71.8987 71.7654 72.7348 70.7342 72.7348Z" stroke="#5A0001" stroke-width="3" stroke-miterlimit="10" stroke-linecap="round" stroke-linejoin="round"/>
<path d="M53.398 72.7349H46.6019V89.2778H53.398V72.7349Z" stroke="#5A0001" stroke-width="3" stroke-miterlimit="10" stroke-linecap="round" stroke-linejoin="round"/>
<path d="M38.7103 89.2778H30.4388V82.803C30.4388 81.8108 31.2431 81.0063 32.2355 81.0063H36.9138C37.906 81.0063 38.7105 81.8106 38.7105 82.803L38.7103 89.2778Z" stroke="#5A0001" stroke-width="3" stroke-miterlimit="10" stroke-linecap="round" stroke-linejoin="round"/>
<path d="M68.9246 89.2778H60.6531V82.803C60.6531 81.8108 61.4574 81.0063 62.4498 81.0063H67.1281C68.1203 81.0063 68.9248 81.8106 68.9248 82.803L68.9246 89.2778Z" stroke="#5A0001" stroke-width="3" stroke-miterlimit="10" stroke-linecap="round" stroke-linejoin="round"/>
<path d="M39.0465 21.6206H60.9535" stroke="#5A0001" stroke-width="3" stroke-miterlimit="10" stroke-linecap="round" stroke-linejoin="round"/>
<path d="M27.1658 30.1221H72.8341" stroke="#5A0001" stroke-width="3" stroke-miterlimit="10" stroke-linecap="round" stroke-linejoin="round"/>
</g>
<defs>
<clipPath id="clip0_4140_2245">
<rect width="100" height="100" fill="white"/>
</clipPath>
</defs>
</svg>
