<svg width="100" height="101" viewBox="0 0 100 101" fill="none" xmlns="http://www.w3.org/2000/svg">
<g id="Group">
<path id="Vector" d="M94.4719 74.3676L90.8891 77.9862L86.8484 73.9052L90.4312 70.2865C91.0422 69.6695 91.0422 68.6721 90.4312 68.0551C89.8203 67.438 88.8312 67.438 88.2219 68.0551L84.6391 71.6737L82.6187 69.6332C82.0078 69.0161 81.0187 69.0161 80.4094 69.6332L73.2437 76.8705C71.4172 78.7153 71.4172 81.72 73.2437 83.5649L73.5406 83.8647C66.6297 88.8658 58.5391 91.5312 50 91.5312C27.5984 91.5312 9.375 73.124 9.375 50.5C9.375 47.8898 7.27187 45.7656 4.6875 45.7656C2.10312 45.7656 0 47.8898 0 50.5C0 78.346 22.4297 101 50 101C60.9172 101 71.6078 97.3356 80.2766 90.6664L81.325 91.7254C82.2062 92.617 83.3844 93.1094 84.6391 93.1094C85.8937 93.1094 87.0719 92.617 87.9531 91.7269L95.1187 84.4897C95.7297 83.8726 95.7297 82.8752 95.1187 82.2582L93.0984 80.2177L96.6812 76.599C97.2922 75.982 97.2922 74.9846 96.6812 74.3676C96.0703 73.7505 95.0812 73.7505 94.4719 74.3676ZM50 97.8438C24.1531 97.8438 3.125 76.6053 3.125 50.5C3.125 49.6305 3.825 48.9219 4.6875 48.9219C5.55 48.9219 6.25 49.6305 6.25 50.5C6.25 74.8647 25.875 94.6875 50 94.6875C59.3719 94.6875 68.2437 91.7112 75.7781 86.1246L78.0234 88.3924C69.8812 94.5565 60.2437 97.8438 50 97.8438ZM85.7437 89.4939C85.1578 90.0857 84.1203 90.0857 83.5344 89.4939L75.4531 81.3318C74.8437 80.7164 74.8437 79.7158 75.4531 79.1004L81.5141 72.9788L91.8047 83.3723L85.7437 89.4939Z" fill="#5A0001"/>
<path id="Vector_2" d="M53.5781 23.7398C52.9203 23.5362 52.2063 23.7966 51.825 24.3742L33.075 52.7804C32.7563 53.2649 32.725 53.8867 32.9969 54.3996C33.2688 54.9141 33.7984 55.2344 34.375 55.2344H45.3125V75.75C45.3125 76.4444 45.7625 77.0599 46.4219 77.2603C46.5719 77.3061 46.7234 77.3282 46.875 77.3282C47.3875 77.3282 47.8813 77.0725 48.175 76.6259L66.925 48.2196C67.2438 47.7352 67.275 47.1134 67.0031 46.6005C66.7313 46.086 66.2016 45.7657 65.625 45.7657H54.6875V25.25C54.6875 24.5557 54.2375 23.9402 53.5781 23.7398ZM62.7063 48.9219L48.4375 70.5375V53.6563C48.4375 52.7852 47.7391 52.0782 46.875 52.0782H37.2938L51.5625 30.4626V47.3438C51.5625 48.2149 52.2609 48.9219 53.125 48.9219H62.7063Z" fill="#5A0001"/>
<path id="Vector_3" d="M50 0C39.0828 0 28.3922 3.66441 19.7234 10.3336L18.675 9.27464C16.9109 7.49136 13.8109 7.49136 12.0469 9.27464L4.88125 16.5119C4.27032 17.129 4.27032 18.1263 4.88125 18.7434L6.90157 20.7839L3.31875 24.4025C2.70782 25.0196 2.70782 26.017 3.31875 26.634C3.62344 26.9418 4.02344 27.0964 4.42344 27.0964C4.82344 27.0964 5.22344 26.9418 5.52813 26.634L9.11094 23.0154L13.1516 27.0964L9.56875 30.715C8.95782 31.3321 8.95782 32.3295 9.56875 32.9465C9.87344 33.2542 10.2734 33.4089 10.6734 33.4089C11.0734 33.4089 11.4734 33.2542 11.7781 32.9465L15.3609 29.3279L17.3813 31.3684C17.6859 31.6761 18.0859 31.8308 18.4859 31.8308C18.8859 31.8308 19.2859 31.6761 19.5906 31.3684L26.7563 24.1311C28.5828 22.2863 28.5828 19.2815 26.7563 17.4367L26.4594 17.1369C33.3703 12.1342 41.4609 9.46875 50 9.46875C72.4016 9.46875 90.625 27.876 90.625 50.5C90.625 53.1102 92.7281 55.2344 95.3125 55.2344C97.8969 55.2344 100 53.1102 100 50.5C100 22.654 77.5687 0 50 0ZM24.5469 21.8996L18.4859 28.0212L8.19531 17.6277L14.2563 11.5061C14.8422 10.9143 15.8797 10.9143 16.4656 11.5061L24.5469 19.6682C25.1562 20.2821 25.1562 21.2842 24.5469 21.8996ZM95.3125 52.0781C94.45 52.0781 93.75 51.3695 93.75 50.5C93.75 26.1338 74.1234 6.3125 50 6.3125C40.6281 6.3125 31.7563 9.28884 24.2219 14.8754L21.9781 12.6108C30.0422 6.52397 39.9078 3.15625 50 3.15625C75.8469 3.15625 96.875 24.3947 96.875 50.5C96.875 51.3695 96.175 52.0781 95.3125 52.0781Z" fill="#5A0001"/>
</g>
</svg>
