<svg width="100" height="101" viewBox="0 0 100 101" fill="none" xmlns="http://www.w3.org/2000/svg">
<g id="zsalu">
<path id="Vector" d="M96.875 4.73438H79.6875V3.15625C79.6875 2.73771 79.5229 2.3363 79.2299 2.04035C78.9368 1.74439 78.5394 1.57813 78.125 1.57812H21.875C21.4606 1.57813 21.0632 1.74439 20.7701 2.04035C20.4771 2.3363 20.3125 2.73771 20.3125 3.15625V4.73438H3.125C2.7106 4.73438 2.31317 4.90064 2.02015 5.1966C1.72712 5.49255 1.5625 5.89396 1.5625 6.3125V85.2188C1.5625 85.6373 1.72712 86.0387 2.02015 86.3347C2.31317 86.6306 2.7106 86.7969 3.125 86.7969H20.3125V89.9531H15.625C15.2106 89.9531 14.8132 90.1194 14.5201 90.4153C14.2271 90.7113 14.0625 91.1127 14.0625 91.5312V97.8438C14.0625 98.2623 14.2271 98.6637 14.5201 98.9597C14.8132 99.2556 15.2106 99.4219 15.625 99.4219H84.375C84.7894 99.4219 85.1868 99.2556 85.4799 98.9597C85.7729 98.6637 85.9375 98.2623 85.9375 97.8438V91.5312C85.9375 91.1127 85.7729 90.7113 85.4799 90.4153C85.1868 90.1194 84.7894 89.9531 84.375 89.9531H79.6875V86.7969H96.875C97.2894 86.7969 97.6868 86.6306 97.9799 86.3347C98.2729 86.0387 98.4375 85.6373 98.4375 85.2188V6.3125C98.4375 5.89396 98.2729 5.49255 97.9799 5.1966C97.6868 4.90064 97.2894 4.73438 96.875 4.73438ZM95.3125 7.89062V12.625H79.6875V7.89062H95.3125ZM79.6875 69.4375V66.2812H95.3125V69.4375H79.6875ZM95.3125 72.5938V75.75H79.6875V72.5938H95.3125ZM79.6875 63.125V59.9688H95.3125V63.125H79.6875ZM79.6875 56.8125V53.6562H95.3125V56.8125H79.6875ZM79.6875 50.5V47.3438H95.3125V50.5H79.6875ZM79.6875 44.1875V41.0312H95.3125V44.1875H79.6875ZM79.6875 37.875V34.7188H95.3125V37.875H79.6875ZM79.6875 31.5625V28.4062H95.3125V31.5625H79.6875ZM79.6875 25.25V22.0938H95.3125V25.25H79.6875ZM79.6875 18.9375V15.7812H95.3125V18.9375H79.6875ZM20.3125 75.75H4.6875V72.5938H20.3125V75.75ZM20.3125 69.4375H4.6875V66.2812H20.3125V69.4375ZM20.3125 63.125H4.6875V59.9688H20.3125V63.125ZM20.3125 56.8125H4.6875V53.6562H20.3125V56.8125ZM20.3125 50.5H4.6875V47.3438H20.3125V50.5ZM20.3125 44.1875H4.6875V41.0312H20.3125V44.1875ZM20.3125 37.875H4.6875V34.7188H20.3125V37.875ZM20.3125 31.5625H4.6875V28.4062H20.3125V31.5625ZM20.3125 25.25H4.6875V22.0938H20.3125V25.25ZM20.3125 18.9375H4.6875V15.7812H20.3125V18.9375ZM20.3125 7.89062V12.625H4.6875V7.89062H20.3125ZM4.6875 83.6406V78.9062H20.3125V83.6406H4.6875ZM82.8125 96.2656H17.1875V93.1094H82.8125V96.2656ZM23.4375 89.9531V4.73438H76.5625V89.9531H23.4375ZM79.6875 83.6406V78.9062H95.3125V83.6406H79.6875Z" fill="#5A0001"/>
<path id="Vector_2" d="M71.875 7.89062H28.125C27.7106 7.89062 27.3132 8.05689 27.0201 8.35285C26.7271 8.6488 26.5625 9.05021 26.5625 9.46875V85.2188C26.5625 85.6373 26.7271 86.0387 27.0201 86.3347C27.3132 86.6306 27.7106 86.7969 28.125 86.7969H71.875C72.2894 86.7969 72.6868 86.6306 72.9799 86.3347C73.2729 86.0387 73.4375 85.6373 73.4375 85.2188V9.46875C73.4375 9.05021 73.2729 8.6488 72.9799 8.35285C72.6868 8.05689 72.2894 7.89062 71.875 7.89062ZM70.3125 22.0938H51.5625V11.0469H70.3125V22.0938ZM48.4375 41.0312V53.6562H29.6875V41.0312H48.4375ZM29.6875 37.875V25.25H48.4375V37.875H29.6875ZM48.4375 56.8125V69.4375H29.6875V56.8125H48.4375ZM51.5625 56.8125H70.3125V69.4375H51.5625V56.8125ZM51.5625 53.6562V41.0312H70.3125V53.6562H51.5625ZM51.5625 37.875V25.25H70.3125V37.875H51.5625ZM48.4375 11.0469V22.0938H29.6875V11.0469H48.4375ZM29.6875 72.5938H48.4375V83.6406H29.6875V72.5938ZM51.5625 83.6406V72.5938H70.3125V83.6406H51.5625Z" fill="#5A0001"/>
</g>
</svg>
