<svg width="98" height="101" viewBox="0 0 98 101" fill="none" xmlns="http://www.w3.org/2000/svg">
<g id="Group">
<path id="Vector" d="M97.7234 46.3984C97.5765 45.0633 96.9094 43.8671 95.8406 43.0291L85.4531 34.8955V13.5766C85.4531 12.7323 84.775 12.0474 83.939 12.0474H71.1515C70.3156 12.0474 69.6375 12.7323 69.6375 13.5766V22.5166L49.9234 7.08258C49.3734 6.65333 48.6141 6.6549 48.0672 7.08415L34.2953 17.8659C34.2312 16.5119 33.9594 15.1878 33.4562 13.9632L37.0969 11.839C37.8203 11.4161 38.0672 10.4819 37.65 9.74961C37.2312 9.01578 36.3047 8.76644 35.5812 9.18937L31.9375 11.3167C31.3234 10.5103 30.6094 9.78433 29.8078 9.15939L31.9109 5.48236C32.3297 4.75169 32.0812 3.81428 31.3562 3.39292C30.6328 2.96683 29.7047 3.2209 29.2875 3.95315L27.1844 7.62229C26.2531 7.2325 25.2734 6.96737 24.2672 6.83481V2.59597C24.2672 1.75009 23.5891 1.06519 22.7531 1.06519C21.9141 1.06519 21.2359 1.75009 21.2359 2.59597V6.83639C20.2281 6.97211 19.25 7.24039 18.3219 7.63019L16.2219 3.95473C15.8 3.2209 14.8734 2.9684 14.15 3.3945C13.4266 3.81428 13.1797 4.75169 13.5984 5.48236L15.7016 9.16254C14.9047 9.77959 14.1875 10.5008 13.5656 11.3135L9.92499 9.18937C9.19999 8.76801 8.27343 9.01736 7.85468 9.75119C7.43593 10.4834 7.68437 11.4177 8.40937 11.8406L12.0437 13.9616C11.6562 14.899 11.3937 15.8901 11.2625 16.908H7.06406C6.22812 16.908 5.54999 17.5929 5.54999 18.4388C5.54999 19.2846 6.22812 19.9695 7.06406 19.9695H11.2641C11.3953 20.989 11.6578 21.9817 12.0422 22.9159L8.41093 25.0353C7.68437 25.4598 7.43749 26.3925 7.85624 27.1263C8.13749 27.6171 8.64687 27.8902 9.17187 27.8902C9.42812 27.8902 9.68749 27.8255 9.92499 27.6866L13.5609 25.5656C14.4828 26.7776 15.6328 27.8002 16.9422 28.5577C17.6906 29.0012 18.4891 29.3341 19.3109 29.5945L2.14531 43.0354C1.07656 43.8813 0.41562 45.0838 0.274995 46.4268C0.13437 47.7493 0.52812 49.0497 1.38281 50.0849L1.71249 50.4826C3.45781 52.602 6.63437 52.9476 8.79218 51.2527L11.2672 49.3132V99.4613C11.2672 100.097 11.6516 100.642 12.1984 100.874C12.3797 100.956 12.5812 101 12.7953 101H85.2109C86.0469 101 86.725 100.315 86.725 99.4692C86.725 99.466 86.7219 99.4629 86.7219 99.4581V49.299L89.2125 51.2464C90.1406 51.9834 91.2578 52.34 92.3625 52.34C93.8297 52.34 95.2828 51.712 96.2594 50.5094L96.6344 50.0754C97.4844 49.0307 97.8687 47.7272 97.7234 46.3984ZM72.6672 15.1073H82.4203V32.5235L72.6672 24.887V15.1073ZM18.4656 25.9143C17.1687 25.1584 16.0891 24.0679 15.3344 22.7455C14.5891 21.4656 14.1953 19.979 14.1953 18.4467C14.1953 18.4419 14.1953 18.4403 14.1953 18.4372C14.1953 18.434 14.1953 18.4325 14.1953 18.4293C14.1984 16.8969 14.5891 15.4119 15.3391 14.1226C16.8656 11.4571 19.6937 9.79853 22.7391 9.79222C22.7453 9.79222 22.7453 9.79537 22.7516 9.79537C22.7547 9.79537 22.7578 9.79222 22.7641 9.79222C24.2875 9.79379 25.7187 10.1804 27.0156 10.9427C27.0219 10.9458 27.025 10.9521 27.0281 10.9553C27.0344 10.9569 27.0375 10.9585 27.0437 10.96C28.3406 11.7317 29.4187 12.8238 30.1625 14.1352C30.9078 15.4167 31.3016 16.9048 31.3016 18.4419C31.3016 19.1047 31.2094 19.7565 31.0641 20.3972L22.5344 27.0727C21.1047 27.0364 19.7047 26.6482 18.4656 25.9143ZM83.6906 97.94H14.2969V46.9413L48.9953 19.777L83.6906 46.9287V97.94ZM94.3234 48.098L93.9453 48.532C93.2562 49.3826 91.9469 49.5215 91.0734 48.8335L49.9234 16.6334C49.3766 16.2057 48.6141 16.2057 48.0672 16.6334L6.93281 48.8335C6.04843 49.5294 4.75156 49.389 4.03593 48.5226L3.70624 48.1249C3.38281 47.7319 3.23281 47.2427 3.28437 46.7472C3.33906 46.2359 3.59843 45.7735 4.00468 45.4468L48.9984 10.2294L93.9812 45.4452C94.3969 45.7719 94.6562 46.228 94.7109 46.7361C94.7687 47.238 94.6187 47.7319 94.3234 48.098Z" fill="#5A0001"/>
<path id="Vector_2" d="M56.0297 3.07106C56.0578 3.06475 58.9078 2.87853 60.3844 4.3162C61.0406 4.95219 61.3328 5.85014 61.2844 7.05583C61.2516 7.80544 61.7609 8.46667 62.4844 8.61975C62.5906 8.64342 62.6953 8.65289 62.7984 8.65289C63.4125 8.65289 63.9766 8.2773 64.2078 7.68076C64.6406 6.55714 65.2672 5.85961 66.1156 5.54083C67.7234 4.94272 69.9094 5.79333 70.6109 6.17208C71.35 6.57292 72.2656 6.29833 72.6641 5.55345C73.0609 4.81016 72.7859 3.88064 72.05 3.4798C71.9 3.39773 68.3078 1.46769 65.0828 2.66391C64.525 2.87064 64.0109 3.15786 63.5484 3.52083C63.2672 2.99847 62.9141 2.52503 62.4859 2.11156C60.0109 -0.295079 55.9547 0.00318685 55.7844 0.01739C54.9516 0.0868275 54.3281 0.823812 54.3953 1.66653C54.4625 2.50925 55.1906 3.12156 56.0297 3.07106Z" fill="#5A0001"/>
<path id="Vector_3" d="M41.9953 38.1481C41.9953 42.0492 45.1391 45.2228 48.9984 45.2228C52.8625 45.2228 56.0047 42.0476 56.0047 38.1481C56.0047 34.2454 52.8609 31.0718 48.9984 31.0718C45.1375 31.0702 41.9953 34.2454 41.9953 38.1481ZM48.9984 34.1318C51.1922 34.1318 52.975 35.934 52.975 38.1481C52.975 40.3606 51.1922 42.1628 48.9984 42.1628C46.8078 42.1628 45.025 40.3606 45.025 38.1481C45.025 35.934 46.8078 34.1318 48.9984 34.1318Z" fill="#5A0001"/>
<path id="Vector_4" d="M33.1969 51.1976C32.9062 51.3491 26.0219 54.9772 24.4656 62.194C23.5344 66.5117 24.9875 71.183 28.3469 74.688C29.4609 75.8463 30.7734 77.7685 30.7187 80.3377C30.6516 83.385 28.7437 86.7243 25.0391 90.2641C24.4312 90.8448 24.4078 91.8122 24.9812 92.4277C25.2797 92.7465 25.6797 92.9058 26.0828 92.9058C26.4547 92.9058 26.8312 92.767 27.1234 92.4876C31.4359 88.364 33.6641 84.2988 33.7484 80.4055C33.825 76.779 32.0391 74.1356 30.525 72.5575C27.8672 69.7895 26.7109 66.1582 27.425 62.8457C28.6703 57.0651 34.5203 53.9514 34.5781 53.923C35.3234 53.5379 35.6156 52.6163 35.2375 51.8635C34.8562 51.1124 33.9437 50.8157 33.1969 51.1976Z" fill="#5A0001"/>
<path id="Vector_5" d="M45.9984 51.1976C45.7047 51.3491 38.8203 54.9772 37.2641 62.194C36.3359 66.5118 37.7859 71.183 41.1484 74.688C42.2594 75.8464 43.575 77.7685 43.5203 80.3393C43.4531 83.3851 41.5422 86.7244 37.8406 90.2641C37.2328 90.8449 37.2062 91.8123 37.7828 92.4277C38.0781 92.7465 38.4812 92.9059 38.8812 92.9059C39.2562 92.9059 39.6312 92.767 39.925 92.4877C44.2344 88.3641 46.4656 84.2988 46.5469 80.4056C46.6266 76.779 44.8375 74.1357 43.3234 72.5576C40.6688 69.7895 39.5125 66.1583 40.2234 62.8458C41.4719 57.0651 47.3219 53.9515 47.3797 53.9231C48.1219 53.538 48.4172 52.6164 48.0359 51.8636C47.6547 51.1108 46.7438 50.8157 45.9984 51.1976Z" fill="#5A0001"/>
<path id="Vector_6" d="M50.0672 62.194C49.1359 66.5118 50.5891 71.183 53.9484 74.688C55.0625 75.8464 56.375 77.7685 56.3203 80.3377C56.2562 83.3851 54.3453 86.7244 50.6437 90.2641C50.0359 90.8449 50.0094 91.8123 50.5828 92.4277C50.8812 92.7465 51.2812 92.9059 51.6844 92.9059C52.0594 92.9059 52.4328 92.767 52.725 92.4877C57.0375 88.3641 59.2687 84.2988 59.35 80.4056C59.4266 76.779 57.6406 74.1357 56.1266 72.5576C53.4719 69.7895 52.3125 66.1583 53.0266 62.8458C54.275 57.0651 60.1219 53.9515 60.1797 53.9231C60.925 53.538 61.2172 52.6164 60.8391 51.8636C60.4578 51.1108 59.5422 50.8157 58.8 51.1976C58.5078 51.3491 51.6234 54.9772 50.0672 62.194Z" fill="#5A0001"/>
<path id="Vector_7" d="M69.1219 80.3393C69.0547 83.3851 67.1437 86.7244 63.4422 90.2641C62.8344 90.8449 62.8078 91.8123 63.3844 92.4277C63.6828 92.7465 64.0828 92.9059 64.4828 92.9059C64.8578 92.9059 65.2328 92.767 65.5266 92.4877C69.8391 88.3641 72.0672 84.2988 72.1484 80.4056C72.2281 76.779 70.4391 74.1357 68.925 72.5576C66.2703 69.7895 65.1141 66.1583 65.8281 62.8458C67.0734 57.0651 72.9234 53.9515 72.9812 53.9231C73.7266 53.538 74.0187 52.6164 73.6375 51.8636C73.2594 51.1108 72.3437 50.8157 71.5984 51.1976C71.3078 51.3491 64.4203 54.9772 62.8641 62.194C61.9359 66.5118 63.3859 71.183 66.7484 74.688C67.8609 75.8479 69.1766 77.7685 69.1219 80.3393Z" fill="#5A0001"/>
</g>
</svg>
