<svg width="100" height="101" viewBox="0 0 100 101" fill="none" xmlns="http://www.w3.org/2000/svg">
<g id="mosquito">
<path id="Vector" d="M99.0141 15.6474C94.2377 13.8513 87.5121 14.5401 79.8565 16.8365C82.1863 15.2694 84.4815 13.696 86.7277 12.123C87.1625 11.8186 87.384 11.288 87.2959 10.7611C87.208 10.2342 86.8266 9.80612 86.3172 9.66251C82.1559 8.48839 77.1535 9.32697 71.8701 11.3576C65.2264 7.56657 57.6797 5.56531 50 5.56531C38.117 5.56531 26.9442 10.2391 18.5403 18.7257C10.136 27.2126 5.50744 38.496 5.50744 50.4973C5.50744 58.3824 7.5049 65.9574 11.2576 72.6331L9.20041 77.3234L0.900602 81.1137C0.213688 81.4274 -0.0911952 82.244 0.219352 82.9378C0.447477 83.4472 0.944156 83.7486 1.46369 83.7486C1.65177 83.7486 1.84279 83.7091 2.02521 83.6259L10.7998 79.6188C11.1053 79.4792 11.3496 79.2308 11.4854 78.9211L12.9975 75.4733C14.6045 77.891 16.4559 80.1686 18.5404 82.2736C19.5947 83.3385 20.6928 84.3429 21.8301 85.2861C21.1666 86.2533 20.476 87.2289 19.7502 88.2184C19.3016 88.8301 19.4287 89.6936 20.0344 90.1467C20.2785 90.3296 20.5635 90.4175 20.8457 90.4175C21.2633 90.4175 21.6758 90.2244 21.9436 89.8597C22.658 88.8856 23.3406 87.9233 23.9969 86.9695C31.5205 92.4661 40.534 95.4348 50.0002 95.4348C61.8856 95.4348 73.059 90.7608 81.4621 82.2736C89.8652 73.7865 94.493 62.5015 94.493 50.4971C94.493 41.0565 91.6567 32.0969 86.2756 24.4756C88.9596 23.2052 91.6215 21.9214 94.2533 20.6216C95.9869 19.7637 97.5885 18.9624 99.1496 18.1712C99.635 17.9252 99.9299 17.4121 99.9004 16.8643C99.8709 16.3169 99.5229 15.8389 99.0141 15.6474ZM82.227 11.8881H82.2467C77.6645 15.0408 72.909 18.1842 68.0694 21.259C58.0369 25.673 47.3752 31.8044 37.8623 38.1234L37.7752 38.0725C56.1801 21.3404 72.3154 11.8881 82.227 11.8881ZM77.7781 28.41C78.3233 29.1074 78.8438 29.827 79.3371 30.5652C77.1235 30.5178 74.9088 30.5591 72.6828 30.6863C74.3897 29.9339 76.0883 29.175 77.7781 28.41ZM64.0971 34.3872C70.6092 33.3527 76.8983 33.0594 83.2344 33.5005C79.4985 37.4095 74.7527 40.2937 68.6844 42.2843C68.6674 42.2897 68.6504 42.2948 68.6336 42.3007C63.5645 43.9573 57.5717 44.9912 50.4713 45.4757L44.7594 42.1449C51.292 39.6554 57.7447 37.0657 64.0971 34.3872ZM61.3828 46.9388L62.9047 52.726L54.6121 47.8904C57.0049 47.6434 59.2572 47.3264 61.3828 46.9388ZM67.0477 55.1417C66.7174 54.6537 66.3231 54.0676 65.9213 53.4571L64.0649 46.3975C65.6744 46.0389 67.2049 45.6333 68.6631 45.1816L74.944 52.2547C75.2028 52.5463 75.5721 52.713 75.96 52.713H81.9608C82.7147 52.713 83.3256 52.0957 83.3256 51.3345C83.3256 50.5732 82.7145 49.956 81.9608 49.956H76.5694L71.474 44.2179C75.9432 42.5321 79.7434 40.3304 82.958 37.5458C84.5485 41.658 85.3535 46.0057 85.3535 50.4975C85.3535 55.2772 84.4426 59.8917 82.6436 64.236L67.0477 55.1417ZM21.9076 28.8198C28.5875 20.0071 38.9793 14.7906 50.0002 14.7906C53.8791 14.7906 57.6645 15.4164 61.2895 16.6514C51.0633 22.7836 41.1416 31.2724 35.291 36.624L21.9076 28.8198ZM14.3354 72.4228L16.1916 68.1902C18.4781 72.6303 21.5967 76.5653 25.3375 79.7845C24.7178 80.8391 24.0668 81.8992 23.3752 82.9696C19.8176 79.9887 16.7559 76.4243 14.3354 72.4228ZM78.0928 72.1803C71.4127 80.993 61.0209 86.2095 50.0002 86.2095C42.0846 86.2095 34.7686 83.5679 28.8699 79.1118C30.5975 75.9684 32.034 72.852 33.234 69.6723C36.1779 68.9842 38.3799 66.3142 38.3799 63.1323C38.3799 62.3672 38.2496 61.6213 38.0057 60.9159C38.8713 60.5369 39.5586 60.0615 40.0887 59.5916C40.7143 59.0369 41.2559 58.3735 41.7123 57.6225L52.0055 61.5627C52.6774 69.4346 53.6348 74.5763 55.2401 81.656C55.385 82.2947 55.9471 82.7273 56.5694 82.7271C56.6701 82.7271 56.7727 82.7159 56.875 82.6922C57.6098 82.5222 58.0692 81.7828 57.9008 81.0409C56.2666 73.8324 55.3156 68.6718 54.6539 60.47C54.6111 59.9396 54.2699 59.4816 53.7774 59.293L42.8182 55.0977C43.1121 54.1199 43.3014 53.0604 43.3768 51.9367L78.0928 72.1803ZM28.758 60.5736C29.509 60.9076 30.3223 61.1731 31.201 61.357C32.2725 61.5812 33.2442 61.6785 34.1238 61.6785C34.5551 61.6785 34.9613 61.6527 35.349 61.6097C35.5459 62.0864 35.6498 62.6015 35.6498 63.1325C35.6498 65.3143 33.8949 67.0893 31.7377 67.0893C29.5805 67.0893 27.8258 65.3145 27.8258 63.1325C27.8258 62.1764 28.1594 61.2786 28.758 60.5736ZM40.6795 50.3639C40.7723 53.492 39.9168 56.075 38.2875 57.5197C37.6069 58.1234 36.7877 58.5315 35.8379 58.7465C35.8154 58.7507 35.793 58.755 35.7707 58.7603C34.6192 59.0085 33.2785 58.9764 31.7549 58.6572C28.7723 58.0334 26.8315 56.3401 26.1424 53.7603C25.7666 52.3536 25.7828 50.7835 26.1289 49.2289C26.1651 49.1292 26.1889 49.0271 26.2012 48.9243C26.6865 46.9885 27.6809 45.0962 29.0686 43.5932L40.6795 50.3639ZM24.0692 46.6729L19.5289 43.9088C19.107 43.6518 18.5811 43.6445 18.1524 43.8897C17.7236 44.1345 17.4588 44.5937 17.4594 45.0912L17.4758 58.4552L16.2705 61.2033C15.2164 57.822 14.6469 54.2258 14.6469 50.4975C14.6469 45.7209 15.5578 41.1084 17.3569 36.7646L26.6572 42.1879C25.5463 43.5133 24.6694 45.0541 24.0692 46.6729ZM20.0889 59.3042C20.1664 59.1279 20.2061 58.9369 20.2059 58.7442L20.1922 47.5316L23.3305 49.4421C23.0449 51.1719 23.086 52.9025 23.507 54.4787C24.0113 56.3669 25.0074 57.933 26.4141 59.1196C25.5647 60.2617 25.0959 61.6564 25.0959 63.1325C25.0959 66.335 27.3264 69.0193 30.2988 69.6859C29.2828 72.2547 28.0973 74.7905 26.7147 77.3449C22.8586 73.9281 19.7432 69.6794 17.644 64.8787L20.0889 59.3042ZM91.7631 50.4973C91.7631 73.7557 73.0283 92.6778 50.0002 92.6778C40.8713 92.6778 32.419 89.7021 25.5393 84.6635C26.2266 83.605 26.8774 82.5555 27.4969 81.5116C33.8059 86.1953 41.5881 88.9666 50.0002 88.9666C62.408 88.9666 74.0756 82.8281 81.2106 72.5463C81.4303 72.2296 81.5082 71.8345 81.4254 71.4572C81.3426 71.0798 81.1067 70.7547 80.7754 70.5614L42.7106 48.365C42.6922 48.3538 42.6738 48.3431 42.6551 48.3327L29.5707 40.7029C29.5531 40.692 29.5354 40.6819 29.5176 40.6719L17.4072 33.6102C17.0764 33.4172 16.6807 33.3736 16.3154 33.4888C15.9508 33.6048 15.6508 33.8696 15.4887 34.2193C13.1188 39.3295 11.9172 44.8062 11.9172 50.4975C11.9172 55.5698 12.8963 60.4148 14.6699 64.8529L12.6746 69.4026C9.83791 63.7127 8.23752 57.2907 8.23752 50.4973C8.23752 27.2418 26.9723 8.32229 50.0004 8.32229C56.4846 8.32229 62.867 9.84104 68.6215 12.7349C67.217 13.3835 65.8014 14.1018 64.384 14.8764C59.8127 12.9914 54.9776 12.0336 50.0004 12.0336C37.5922 12.0336 25.9248 18.1722 18.7901 28.454C18.5703 28.7707 18.4924 29.1658 18.5752 29.5431C18.658 29.9205 18.894 30.2456 19.2252 30.4389L49.3881 48.0275C49.4375 48.0607 49.4889 48.0908 49.5424 48.1175L82.5936 67.3901C82.8031 67.5124 83.0389 67.575 83.276 67.575C83.4135 67.575 83.5514 67.5541 83.6854 67.5114C84.05 67.3955 84.35 67.1307 84.5121 66.781C86.882 61.6708 88.0836 56.1921 88.0836 50.4973C88.0836 45.2861 87.076 40.2529 85.0885 35.5213C85.7947 34.79 86.4723 34.0284 87.1152 33.2281C87.4315 32.8345 87.5084 32.2978 87.3156 31.8298C87.1229 31.3621 86.6916 31.0386 86.1924 30.9879C85.0131 30.8678 83.8371 30.7749 82.6621 30.7035C81.9504 29.5094 81.1727 28.3521 80.3375 27.243C81.4811 26.7183 82.6207 26.191 83.7559 25.661C88.9971 32.9016 91.7631 41.4643 91.7631 50.4973ZM93.0531 18.1453C76.819 26.1632 59.5438 33.635 41.699 40.3604L40.5119 39.6682C51.2678 32.6124 62.2758 26.622 71.708 22.7053C81.2455 18.7448 88.9951 16.9663 94.4481 17.4531C93.9916 17.6804 93.5274 17.9108 93.0531 18.1453Z" fill="#5A0001"/>
</g>
</svg>
