<svg width="100" height="101" viewBox="0 0 100 101" fill="none" xmlns="http://www.w3.org/2000/svg">
<g id="audit">
<path id="Vector" d="M37.8088 9.07264C37.8088 8.02121 38.6578 7.1635 39.6988 7.1635C40.7398 7.1635 41.5889 8.02102 41.5889 9.07264C41.5889 10.1241 40.7398 10.9816 39.6988 10.9816C38.6578 10.9816 37.8088 10.1241 37.8088 9.07264ZM16.2267 81.1853C16.2267 82.0568 16.9264 82.7634 17.7892 82.7634H40.7879C41.6508 82.7634 42.3504 82.0568 42.3504 81.1853C42.3504 80.3137 41.6508 79.6071 40.7879 79.6071H17.7892C16.9264 79.6071 16.2267 80.3135 16.2267 81.1853ZM17.7892 50.792H33.5459C34.4088 50.792 35.1084 50.0853 35.1084 49.2138C35.1084 48.3423 34.4088 47.6357 33.5459 47.6357H17.7892C16.9264 47.6357 16.2267 48.3423 16.2267 49.2138C16.2267 50.0853 16.9264 50.792 17.7892 50.792ZM17.7892 61.449H33.5459C34.4088 61.449 35.1084 60.7424 35.1084 59.8709C35.1084 58.9994 34.4088 58.2928 33.5459 58.2928H17.7892C16.9264 58.2928 16.2267 58.9994 16.2267 59.8709C16.2267 60.7424 16.9264 61.449 17.7892 61.449ZM17.7892 72.1061H33.5459C34.4088 72.1061 35.1084 71.3995 35.1084 70.528C35.1084 69.6565 34.4088 68.9499 33.5459 68.9499H17.7892C16.9264 68.9499 16.2267 69.6565 16.2267 70.528C16.2267 71.3995 16.9264 72.1061 17.7892 72.1061ZM43.1476 36.9786H17.7892C16.9264 36.9786 16.2267 37.6852 16.2267 38.5567C16.2267 39.4283 16.9264 40.1349 17.7892 40.1349H43.1476C44.0105 40.1349 44.7101 39.4283 44.7101 38.5567C44.7101 37.6852 44.0105 36.9786 43.1476 36.9786ZM16.2267 27.8997C16.2267 28.7712 16.9264 29.4778 17.7892 29.4778H61.6084C62.4713 29.4778 63.1709 28.7712 63.1709 27.8997C63.1709 27.0282 62.4713 26.3215 61.6084 26.3215H17.7892C16.9264 26.3215 16.2267 27.028 16.2267 27.8997ZM97.4728 92.6965L93.46 96.8734C92.7937 97.5668 91.9062 97.9152 91.0176 97.9152C90.1635 97.9152 89.3086 97.5934 88.6486 96.9466L77.8291 86.3428V93.5984C77.8291 96.8093 75.2428 99.4217 72.0635 99.4217H7.33417C4.15507 99.4217 1.56854 96.8093 1.56854 93.5984V15.4861C1.56854 12.2751 4.15487 9.66266 7.33417 9.66266H21.9541V8.67495C21.9541 7.80343 22.6537 7.09683 23.5166 7.09683H31.6142C32.918 3.79322 36.0851 1.57812 39.6988 1.57812C43.3125 1.57812 46.4797 3.79322 47.7836 7.09703H55.8812C56.7441 7.09703 57.4437 7.80363 57.4437 8.67515V9.66286H72.0637C75.2428 9.66286 77.8293 12.2752 77.8293 15.4863V48.5976C79.9885 52.0138 81.2412 56.0684 81.2412 60.4132C81.2412 64.6155 80.0689 68.5465 78.0385 71.8909L82.4912 76.2913C82.9166 76.0934 83.3816 75.983 83.865 75.9757C84.7676 75.9601 85.6349 76.3055 86.2859 76.9433L97.4012 87.8373C98.0519 88.4752 98.4178 89.3325 98.4314 90.2516C98.4447 91.1708 98.1045 92.0392 97.4728 92.6965ZM76.1951 74.4853C75.7719 74.9984 75.3267 75.4924 74.8599 75.9646L78.7709 79.83L80.1504 78.394L76.1951 74.4853ZM21.9539 19.7128V18.7248H10.5408V90.3601H68.8568V80.2713C66.0043 81.6571 62.8092 82.4343 59.4377 82.4343C47.4152 82.4343 37.6344 72.5557 37.6344 60.4132C37.6344 48.2707 47.4152 38.392 59.4377 38.392C62.8092 38.392 66.0041 39.1693 68.8568 40.5551V18.7248H57.4435V19.7128C57.4435 20.5843 56.7439 21.2909 55.881 21.2909H23.5164C22.6535 21.2909 21.9539 20.5843 21.9539 19.7128ZM78.1158 60.4132C78.1158 50.011 69.7369 41.5483 59.4377 41.5483C49.1385 41.5483 40.7594 50.011 40.7594 60.4132C40.7594 70.8154 49.1383 79.2781 59.4377 79.2781C69.7369 79.2781 78.1158 70.8154 78.1158 60.4132ZM57.4435 12.8191V15.5686H70.4193C71.2822 15.5686 71.9818 16.2752 71.9818 17.1467V42.4117C72.9502 43.1021 73.8603 43.8707 74.7041 44.7073V15.4861C74.7041 14.0155 73.5197 12.8189 72.0635 12.8189L57.4435 12.8191ZM25.0789 18.1346H54.3185V10.2533H46.6447C45.923 10.2533 45.2951 9.7538 45.1258 9.04502C44.5197 6.507 42.2881 4.73438 39.6988 4.73438C37.1096 4.73438 34.8777 6.507 34.2719 9.04502C34.1025 9.7538 33.4746 10.2533 32.7529 10.2533H25.0791L25.0789 18.1346ZM74.7039 93.5986V80.2269L72.4918 78.0404C72.3236 78.1677 72.1535 78.2922 71.9816 78.4147V91.9382C71.9816 92.8097 71.282 93.5163 70.4191 93.5163H8.97831C8.11542 93.5163 7.41581 92.8097 7.41581 91.9382V17.1467C7.41581 16.2752 8.11542 15.5686 8.97831 15.5686H21.9541V12.8191H7.33417C5.87811 12.8191 4.69354 14.0155 4.69354 15.4863V93.5986C4.69354 95.0692 5.87792 96.2656 7.33417 96.2656H72.0635C73.5195 96.2656 74.7039 95.0692 74.7039 93.5986ZM95.3064 90.2991C95.3056 90.2453 95.2908 90.1672 95.2244 90.1021L84.1092 79.2083C84.0447 79.1451 83.9697 79.1313 83.9164 79.1313C83.9148 79.1313 83.9133 79.1313 83.9119 79.1313C83.8584 79.1321 83.781 79.1471 83.717 79.214L79.7037 83.3911C79.6392 83.4582 79.6267 83.5367 79.6275 83.5905C79.6283 83.6446 79.6432 83.7225 79.7094 83.7876L90.8248 94.6814C90.9307 94.7853 91.1142 94.7828 91.2172 94.6755L95.2305 90.4984C95.2947 90.4315 95.3072 90.3532 95.3064 90.2991ZM75.534 60.4132C75.534 69.3775 68.3131 76.6706 59.4377 76.6706C50.5621 76.6706 43.3412 69.3775 43.3412 60.4132C43.3412 51.4488 50.5621 44.1557 59.4377 44.1557C68.3133 44.1557 75.534 51.4488 75.534 60.4132ZM72.409 60.4132C72.409 53.1891 66.59 47.312 59.4377 47.312C52.2851 47.312 46.4662 53.1891 46.4662 60.4132C46.4662 67.6373 52.2851 73.5144 59.4377 73.5144C66.59 73.5144 72.409 67.6373 72.409 60.4132ZM66.7568 52.7731C67.7896 52.7731 68.7611 53.1779 69.4937 53.9139C71.0113 55.4382 71.018 57.9253 69.5088 59.458C67.6002 61.4052 62.4068 66.7746 59.8625 69.3444C59.1043 70.11 58.1088 70.4927 57.1131 70.4927C56.1174 70.4927 55.1219 70.11 54.3639 69.3444L49.3762 64.3068C48.6418 63.5651 48.2375 62.579 48.2375 61.5301C48.2375 60.4811 48.6418 59.4949 49.3764 58.7532C50.1105 58.0117 51.0869 57.6031 52.1256 57.6031C53.164 57.6031 54.1404 58.0117 54.8748 58.7534L57.1012 61.0022L63.999 53.934C64.7349 53.1864 65.7086 52.7759 66.7455 52.7731H66.7568ZM67.2898 56.1517C67.0969 55.9577 66.8807 55.928 66.7543 55.9293C66.6371 55.9295 66.4121 55.9593 66.2199 56.1546L58.2221 64.3498C57.9299 64.6495 57.5312 64.8185 57.115 64.8201C57.1131 64.8201 57.1111 64.8201 57.1094 64.8201C56.6951 64.8201 56.2976 64.6538 56.0045 64.3579L52.665 60.9851C52.4707 60.7886 52.2435 60.7594 52.1256 60.7594C52.0076 60.7594 51.7803 60.7886 51.5859 60.9851C51.3914 61.1815 51.3621 61.4108 51.3621 61.5301C51.3621 61.6495 51.3912 61.8787 51.5857 62.075H51.5859L56.5734 67.1125C56.8709 67.413 57.3549 67.4132 57.6527 67.1125C60.184 64.556 65.3719 59.1921 67.2904 57.235C67.5871 56.9338 67.5857 56.4489 67.2898 56.1517Z" fill="#5A0001"/>
</g>
</svg>
