<svg width="100" height="101" viewBox="0 0 100 101" fill="none" xmlns="http://www.w3.org/2000/svg">
<g id="window">
<path id="Vector" d="M95.3125 86.7969H87.5V17.3594C88.7421 17.3556 89.9322 16.8556 90.8105 15.9686C91.6887 15.0815 92.1838 13.8795 92.1875 12.625V4.73438C92.1875 4.31583 92.0229 3.91443 91.7299 3.61847C91.4368 3.32252 91.0394 3.15625 90.625 3.15625H9.375C8.9606 3.15625 8.56317 3.32252 8.27015 3.61847C7.97712 3.91443 7.8125 4.31583 7.8125 4.73438V12.625C7.81621 13.8795 8.31126 15.0815 9.18954 15.9686C10.0678 16.8556 11.2579 17.3556 12.5 17.3594V86.7969H4.6875C4.2731 86.7969 3.87567 86.9631 3.58265 87.2591C3.28962 87.5551 3.125 87.9565 3.125 88.375V96.2656C3.125 96.6842 3.28962 97.0856 3.58265 97.3815C3.87567 97.6775 4.2731 97.8438 4.6875 97.8438H95.3125C95.7269 97.8438 96.1243 97.6775 96.4174 97.3815C96.7104 97.0856 96.875 96.6842 96.875 96.2656V88.375C96.875 87.9565 96.7104 87.5551 96.4174 87.2591C96.1243 86.9631 95.7269 86.7969 95.3125 86.7969ZM10.9375 12.625V6.3125H89.0625V12.625C89.0625 13.0435 88.8979 13.4449 88.6049 13.7409C88.3118 14.0369 87.9144 14.2031 87.5 14.2031H12.5C12.0856 14.2031 11.6882 14.0369 11.3951 13.7409C11.1021 13.4449 10.9375 13.0435 10.9375 12.625ZM84.375 17.3594V86.7969H15.625V17.3594H84.375ZM93.75 94.6875H6.25V89.9531H93.75V94.6875Z" fill="#5A0001"/>
<path id="Vector_2" d="M81.25 18.9375H18.75C18.3356 18.9375 17.9382 19.1038 17.6451 19.3997C17.3521 19.6957 17.1875 20.0971 17.1875 20.5156V83.6406C17.1875 84.0592 17.3521 84.4606 17.6451 84.7565C17.9382 85.0525 18.3356 85.2188 18.75 85.2188H81.25C81.6644 85.2188 82.0618 85.0525 82.3549 84.7565C82.6479 84.4606 82.8125 84.0592 82.8125 83.6406V20.5156C82.8125 20.0971 82.6479 19.6957 82.3549 19.3997C82.0618 19.1038 81.6644 18.9375 81.25 18.9375ZM48.4375 82.0625H20.3125V52.0781H48.4375V82.0625ZM48.4375 48.9219H20.3125V22.0938H48.4375V48.9219ZM79.6875 82.0625H51.5625V52.0781H79.6875V82.0625ZM79.6875 48.9219H51.5625V22.0938H79.6875V48.9219Z" fill="#5A0001"/>
<path id="Vector_3" d="M23.89 32.0239L30.1402 25.7113L32.3499 27.9431L26.0997 34.2557L23.89 32.0239Z" fill="#5A0001"/>
<path id="Vector_4" d="M23.8901 39.9146L37.9505 25.7135L40.1599 27.945L26.0995 42.146L23.8901 39.9146Z" fill="#5A0001"/>
</g>
</svg>
