<svg width="100" height="101" viewBox="0 0 100 101" fill="none" xmlns="http://www.w3.org/2000/svg">
<g id="shutter">
<path id="Vector" d="M95.3125 44.1875V11.0469H96.875C97.2894 11.0469 97.6868 10.8806 97.9799 10.5847C98.2729 10.2887 98.4375 9.88729 98.4375 9.46875V3.15625C98.4375 2.73771 98.2729 2.3363 97.9799 2.04035C97.6868 1.74439 97.2894 1.57813 96.875 1.57812H3.125C2.7106 1.57813 2.31317 1.74439 2.02015 2.04035C1.72712 2.3363 1.5625 2.73771 1.5625 3.15625V9.46875C1.5625 9.88729 1.72712 10.2887 2.02015 10.5847C2.31317 10.8806 2.7106 11.0469 3.125 11.0469H4.6875V44.1875C4.6915 45.1632 4.99388 46.1138 5.55326 46.9093C6.11264 47.7048 6.90171 48.3063 7.8125 48.6315V89.9531H3.125C2.7106 89.9531 2.31317 90.1194 2.02015 90.4153C1.72712 90.7113 1.5625 91.1127 1.5625 91.5312V97.8438C1.5625 98.2623 1.72712 98.6637 2.02015 98.9597C2.31317 99.2556 2.7106 99.4219 3.125 99.4219H96.875C97.2894 99.4219 97.6868 99.2556 97.9799 98.9597C98.2729 98.6637 98.4375 98.2623 98.4375 97.8438V91.5312C98.4375 91.1127 98.2729 90.7113 97.9799 90.4153C97.6868 90.1194 97.2894 89.9531 96.875 89.9531H92.1875V48.6315C93.0983 48.3063 93.8874 47.7048 94.4467 46.9093C95.0061 46.1138 95.3085 45.1632 95.3125 44.1875ZM90.625 45.7656H9.375C8.9606 45.7656 8.56317 45.5994 8.27015 45.3034C7.97712 45.0074 7.8125 44.606 7.8125 44.1875V42.6094H92.1875V44.1875C92.1875 44.606 92.0229 45.0074 91.7299 45.3034C91.4368 45.5994 91.0394 45.7656 90.625 45.7656ZM17.1875 48.9219H42.3438C42.653 50.4369 43.3949 51.8272 44.4779 52.9211C45.5609 54.0149 46.9375 54.7643 48.4375 55.0766V68.1513C47.395 68.5236 46.5163 69.2561 45.9568 70.2194C45.3973 71.1827 45.193 72.3148 45.38 73.4155C45.567 74.5163 46.1332 75.5148 46.9787 76.2347C47.8241 76.9545 48.8942 77.3493 50 77.3493C51.1058 77.3493 52.1759 76.9545 53.0213 76.2347C53.8668 75.5148 54.433 74.5163 54.62 73.4155C54.807 72.3148 54.6027 71.1827 54.0432 70.2194C53.4837 69.2561 52.605 68.5236 51.5625 68.1513V55.0766C53.0625 54.7643 54.4391 54.0149 55.5221 52.9211C56.6051 51.8272 57.347 50.4369 57.6563 48.9219H82.8125V83.6406H17.1875V48.9219ZM51.5625 72.5938C51.5625 72.9059 51.4709 73.211 51.2992 73.4705C51.1275 73.73 50.8835 73.9323 50.5979 74.0517C50.3124 74.1712 49.9983 74.2024 49.6952 74.1416C49.3921 74.0807 49.1137 73.9304 48.8951 73.7097C48.6766 73.4889 48.5278 73.2078 48.4675 72.9016C48.4072 72.5955 48.4382 72.2782 48.5564 71.9898C48.6747 71.7015 48.875 71.455 49.1319 71.2816C49.3889 71.1082 49.691 71.0156 50 71.0156C50.4144 71.0156 50.8118 71.1819 51.1049 71.4778C51.3979 71.7738 51.5625 72.1752 51.5625 72.5938ZM50 52.0781C49.034 52.0741 48.0928 51.7687 47.3052 51.2037C46.5175 50.6387 45.922 49.8418 45.6 48.9219H54.4C54.078 49.8418 53.4825 50.6387 52.6948 51.2037C51.9072 51.7687 50.966 52.0741 50 52.0781ZM7.8125 17.3594H92.1875V20.5156H7.8125V17.3594ZM7.8125 23.6719H92.1875V26.8281H7.8125V23.6719ZM7.8125 29.9844H92.1875V33.1406H7.8125V29.9844ZM7.8125 36.2969H92.1875V39.4531H7.8125V36.2969ZM4.6875 4.73438H95.3125V7.89062H4.6875V4.73438ZM92.1875 11.0469V14.2031H7.8125V11.0469H92.1875ZM95.3125 96.2656H4.6875V93.1094H95.3125V96.2656ZM10.9375 89.9531V48.9219H14.0625V85.2188C14.0625 85.6373 14.2271 86.0387 14.5201 86.3347C14.8132 86.6306 15.2106 86.7969 15.625 86.7969H84.375C84.7894 86.7969 85.1868 86.6306 85.4799 86.3347C85.7729 86.0387 85.9375 85.6373 85.9375 85.2188V48.9219H89.0625V89.9531H10.9375Z" fill="#5A0001"/>
</g>
</svg>
